<svg width="60" height="61" viewBox="0 0 60 61" fill="none" xmlns="http://www.w3.org/2000/svg">
<path d="M35.3483 17.123C36.3713 15.4607 37.5192 13.5773 37.3922 11.4565C37.2877 9.69777 36.0709 7.91026 34.3118 7.70135C32.7527 7.53026 31.3076 8.61421 29.7482 8.78534C27.8475 9.00883 24.6988 7.43609 23.2737 9.46044C22.2322 10.937 23.3596 13.0637 24.8709 17.1233L35.3483 17.123Z" fill="#FFCA4F"/>
<path d="M27.887 34.4209C27.887 35.4575 28.6685 35.7744 29.7163 36.103V32.887C28.76 32.9705 27.887 33.4583 27.887 34.4208V34.4209Z" fill="#FFCA4F"/>
<path d="M30.936 38.7058V42.0511C31.939 41.9503 32.9183 41.4616 32.9183 40.4533C32.9183 39.3706 32.0575 39.0337 30.936 38.7058Z" fill="#FFCA4F"/>
<path d="M36.945 20.7076C36.3353 21.0342 35.8608 20.891 35.1482 20.9261C35.5948 22.1201 36.3439 22.8387 35.9374 23.9684C35.6108 24.8279 34.6867 25.4052 33.6557 25.1472C33.6246 25.2424 33.9876 27.7522 31.7545 27.7522C30.699 27.7522 29.8532 26.906 29.8532 25.8509V20.9262C24.6702 20.8287 24.3092 21.1544 23.4835 20.6125C18.0073 23.9115 14.214 31.1562 14.214 39.57C14.214 51.0924 21.3444 53.3172 30.1385 53.3172C38.9233 53.3172 46.063 51.0926 46.063 39.57C46.0623 31.2323 42.3261 24.0453 36.9446 20.7076L36.945 20.7076ZM30.9358 44.0401V45.3781H29.7159V44.0212C27.9747 43.8482 26.412 43.1727 25.027 41.996L26.4183 40.3788C27.486 41.2833 28.5852 41.8219 29.7159 41.996V38.3897C27.3428 37.8373 25.5606 37.0769 25.5606 34.6445C25.5606 32.3442 27.428 31.0142 29.7159 30.8992V29.9698H30.9358V30.9175C32.3335 31.0173 33.6548 31.4815 34.9002 32.3121L33.6611 34.0222C32.8228 33.4399 31.914 33.0804 30.9358 32.9435V36.4378H30.9932C33.4032 36.9902 35.2431 37.8036 35.2431 40.2762C35.2431 42.646 33.2867 43.928 30.9358 44.0403L30.9358 44.0401Z" fill="#FFCA4F"/>
<path d="M36.5368 19.0277C36.5368 18.7651 36.3242 18.5522 36.0613 18.5522L24.5321 18.5526C24.2695 18.5526 24.0566 18.7651 24.0566 19.0281C24.0566 19.2907 24.2692 19.5036 24.5321 19.5036H31.2749V25.8538C31.2749 26.1164 31.4875 26.3293 31.7504 26.3293C32.013 26.3293 32.2259 26.1167 32.2259 25.8538V20.2633L33.7177 23.5091C33.8271 23.7476 34.1096 23.852 34.348 23.7422C34.5868 23.6328 34.6909 23.3503 34.5811 23.1119L32.9226 19.5039H36.061C36.3236 19.5033 36.5365 19.2907 36.5365 19.0278L36.5368 19.0277Z" fill="#FFCA4F"/>
</svg>
