<svg width="24" height="25" viewBox="0 0 24 25" fill="none" xmlns="http://www.w3.org/2000/svg">
<g clip-path="url(#clip0_25_1792)">
<path d="M24 12.4001C24 15.5827 22.7357 18.635 20.4853 20.8854C18.2348 23.1359 15.1826 24.4001 12 24.4001C8.8174 24.4001 5.76516 23.1359 3.51472 20.8854C1.26428 18.635 0 15.5827 0 12.4001C0 9.21755 1.26428 6.1653 3.51472 3.91487C5.76516 1.66443 8.8174 0.400146 12 0.400146C15.1826 0.400146 18.2348 1.66443 20.4853 3.91487C22.7357 6.1653 24 9.21755 24 12.4001ZM8.244 9.44965H9.4815C9.6885 9.44965 9.8535 9.28015 9.8805 9.07465C10.0155 8.09065 10.6905 7.37365 11.8935 7.37365C12.9225 7.37365 13.8645 7.88815 13.8645 9.12565C13.8645 10.0781 13.3035 10.5161 12.417 11.1821C11.4075 11.9156 10.608 12.7721 10.665 14.1626L10.6695 14.4881C10.6711 14.5866 10.7113 14.6804 10.7814 14.7494C10.8516 14.8185 10.9461 14.8572 11.0445 14.8571H12.261C12.3605 14.8571 12.4558 14.8176 12.5262 14.7473C12.5965 14.677 12.636 14.5816 12.636 14.4821V14.3246C12.636 13.2476 13.0455 12.9341 14.151 12.0956C15.0645 11.4011 16.017 10.6301 16.017 9.01165C16.017 6.74515 14.103 5.65015 12.0075 5.65015C10.107 5.65015 8.025 6.53515 7.8825 9.07915C7.88045 9.12759 7.88832 9.17594 7.90565 9.22122C7.92297 9.26651 7.94937 9.30777 7.98323 9.34247C8.01709 9.37717 8.05769 9.40458 8.10254 9.42301C8.14738 9.44144 8.19552 9.45051 8.244 9.44965ZM11.7315 19.1141C12.6465 19.1141 13.275 18.5231 13.275 17.7236C13.275 16.8956 12.645 16.3136 11.7315 16.3136C10.8555 16.3136 10.218 16.8956 10.218 17.7236C10.218 18.5231 10.8555 19.1141 11.733 19.1141H11.7315Z" fill="#A1A0BD"/>
</g>
<defs>
<clipPath id="clip0_25_1792">
<rect width="24" height="24" fill="white" transform="translate(0 0.400146)"/>
</clipPath>
</defs>
</svg>
